<?xml version="1.0" standalone="no"?>
<!DOCTYPE svg PUBLIC "-//W3C//DTD SVG 20010904//EN"
 "http://www.w3.org/TR/2001/REC-SVG-20010904/DTD/svg10.dtd">
<svg version="1.0" xmlns="http://www.w3.org/2000/svg"
 width="500.000000pt" height="500.000000pt" viewBox="0 0 500.000000 500.000000"
 preserveAspectRatio="xMidYMid meet">

<g transform="translate(0.000000,500.000000) scale(0.100000,-0.100000)"
fill="#000000" stroke="none">
<path d="M2245 4714 c-326 -46 -531 -106 -780 -229 -440 -216 -801 -579 -1016
-1020 -265 -544 -297 -1130 -94 -1715 40 -116 155 -344 232 -460 298 -450 752
-781 1273 -928 236 -67 318 -77 620 -77 260 1 283 2 412 28 546 110 993 372
1334 782 579 699 668 1698 221 2487 -295 520 -791 905 -1368 1062 -201 54
-317 69 -569 71 -129 2 -248 1 -265 -1z m800 -398 c190 -58 341 -127 497 -228
353 -229 613 -555 759 -951 113 -305 140 -676 73 -1012 -25 -123 -97 -332
-154 -446 -280 -558 -790 -934 -1409 -1040 -123 -21 -421 -32 -436 -17 -4 4 4
82 18 175 15 92 33 218 41 278 8 61 29 202 46 315 17 113 39 268 50 345 10 77
44 311 75 520 30 209 76 520 100 690 25 171 61 418 80 550 20 132 42 287 50
345 8 58 26 184 40 280 14 96 27 187 28 202 3 35 8 35 142 -6z m-1276 -1180
c37 -12 68 -32 102 -66 64 -64 84 -127 84 -275 0 -143 -13 -173 -97 -214 l-59
-30 51 -22 c112 -48 134 -109 128 -364 -3 -154 -5 -174 -26 -218 -17 -34 -37
-55 -70 -75 l-47 -27 -327 -3 -328 -3 0 661 0 662 268 -4 c216 -4 277 -8 321
-22z"/>
<path d="M2864 3093 c4 -32 20 -170 36 -308 33 -285 60 -515 90 -760 11 -93
20 -178 20 -187 0 -17 17 -18 215 -18 126 0 215 4 215 9 0 14 79 579 88 631 8
43 9 41 21 -55 15 -122 67 -461 82 -532 l10 -53 215 0 c181 0 214 2 214 15 0
8 34 301 75 651 41 350 75 643 75 650 0 11 -32 14 -165 14 -163 0 -165 0 -170
-22 -18 -80 -84 -722 -86 -841 -1 -81 -15 -21 -23 103 -12 176 -55 693 -61
728 l-6 32 -169 0 c-93 0 -171 -4 -174 -9 -14 -22 -96 -723 -96 -815 0 -140
-26 121 -60 604 -6 85 -13 170 -16 188 l-5 32 -166 0 -166 0 7 -57z"/>
<path d="M1530 2795 l0 -145 39 0 c21 0 44 6 50 14 17 21 25 164 12 213 -10
37 -16 44 -49 53 -20 5 -40 10 -44 10 -5 0 -8 -65 -8 -145z"/>
<path d="M1530 2249 l0 -189 29 0 c16 0 39 9 52 19 23 19 24 24 24 170 0 101
-4 154 -12 162 -6 6 -30 15 -52 19 l-41 7 0 -188z"/>
</g>
</svg>
